<?xml version="1.0" encoding="utf-8"?>
<!-- Generator: Adobe Illustrator 25.3.1, SVG Export Plug-In . SVG Version: 6.00 Build 0)  -->
<svg version="1.1" id="Ebene_1" xmlns="http://www.w3.org/2000/svg" xmlns:xlink="http://www.w3.org/1999/xlink" x="0px" y="0px"
	 viewBox="0 0 1500 1000" style="enable-background:new 0 0 1500 1000;" xml:space="preserve">
<style type="text/css">
	.st0{fill:url(#SVGID_1_);}
	.st1{fill:#FFFFFF;}
	.st2{display:none;}
	.st3{display:inline;}
	.st4{fill:#0B0F19;}
	.st5{font-family:'Poppins-SemiBold';}
	.st6{font-size:170px;}
</style>
<g>
	<linearGradient id="SVGID_1_" gradientUnits="userSpaceOnUse" x1="299.901" y1="620.3426" x2="618.099" y2="302.1446">
		<stop  offset="4.446847e-03" style="stop-color:#5100FF"/>
		<stop  offset="1" style="stop-color:#FF0063"/>
	</linearGradient>
	<circle class="st0" cx="459" cy="461.24" r="225"/>
	<g>
		<path class="st1" d="M534.76,348.74H383.24c-26.46,0-47.99,21.53-47.99,47.99c0,25.19,19.51,45.89,44.2,47.83
			c0.56,0.1,1.14,0.16,1.73,0.16c15.88,0,28.8,12.92,28.8,28.8v76.79c0,26.46,21.53,47.99,47.99,47.99
			c26.46,0,47.99-21.53,47.99-47.99v-30.72c0-5.3-4.3-9.6-9.6-9.6c-5.3,0-9.6,4.3-9.6,9.6v30.72c0,15.88-12.92,28.8-28.8,28.8
			s-28.8-12.92-28.8-28.8v-76.79c0-25.19-19.51-45.89-44.2-47.83c-0.56-0.1-1.14-0.16-1.73-0.16c-15.88,0-28.8-12.92-28.8-28.8
			c0-15.88,12.92-28.8,28.8-28.8h151.52c15.88,0,28.8,12.92,28.8,28.8c0,15.88-12.92,28.8-28.8,28.8c-5.3,0-9.6,4.3-9.6,9.6
			c0,5.3,4.3,9.6,9.6,9.6c26.46,0,47.99-21.53,47.99-47.99C582.75,370.27,561.22,348.74,534.76,348.74z"/>
		<circle class="st1" cx="496.36" cy="470.44" r="15.36"/>
	</g>
</g>
<g class="st2">
	<g class="st3">
		<path class="st4" d="M608.55,723.05h-7.39c-0.77,0-1.16-0.42-1.16-1.16v-0.7c0-0.77,0.39-1.16,1.16-1.16h18.23
			c0.74,0,1.13,0.39,1.13,1.16v0.7c0,0.74-0.39,1.16-1.13,1.16H612v20.66c0,0.77-0.42,1.16-1.16,1.16h-1.16
			c-0.74,0-1.13-0.39-1.13-1.16V723.05z"/>
		<path class="st4" d="M630.93,721.19c0-0.77,0.39-1.16,1.16-1.16h12.1c0.77,0,1.16,0.39,1.16,1.16v0.7c0,0.74-0.39,1.16-1.16,1.16
			h-9.82v7.78h7.78c0.74,0,1.16,0.39,1.16,1.16v0.7c0,0.77-0.42,1.16-1.16,1.16h-7.78v7.99h10.42c0.77,0,1.16,0.39,1.16,1.16v0.7
			c0,0.77-0.39,1.16-1.16,1.16h-12.7c-0.77,0-1.16-0.39-1.16-1.16V721.19z"/>
		<path class="st4" d="M668.16,719.6c4.26,0,7,1.65,8.23,2.57c0.56,0.42,0.6,0.98,0.21,1.62l-0.46,0.7
			c-0.42,0.63-0.95,0.7-1.62,0.28c-1.06-0.7-3.24-1.97-6.23-1.97c-5.77,0-9.18,4.22-9.18,9.47c0,5.28,3.48,9.82,9.22,9.82
			c3.27,0,5.67-1.58,6.76-2.43c0.6-0.46,1.16-0.46,1.62,0.14l0.53,0.7c0.42,0.56,0.39,1.13-0.18,1.62
			c-1.27,1.05-4.29,3.17-8.83,3.17c-7.67,0-12.7-5.7-12.7-12.98C655.53,725.09,660.73,719.6,668.16,719.6z"/>
		<path class="st4" d="M688.99,721.19c0-0.77,0.39-1.16,1.16-1.16h1.13c0.77,0,1.16,0.39,1.16,1.16v9.78h12.91v-9.78
			c0-0.77,0.42-1.16,1.16-1.16h1.16c0.74,0,1.13,0.39,1.13,1.16v22.52c0,0.77-0.39,1.16-1.13,1.16h-1.16
			c-0.74,0-1.16-0.39-1.16-1.16v-9.75h-12.91v9.75c0,0.77-0.39,1.16-1.16,1.16h-1.13c-0.77,0-1.16-0.39-1.16-1.16V721.19z"/>
		<path class="st4" d="M722.17,721.19c0-0.77,0.39-1.16,1.16-1.16h1.34c0.67,0,1.06,0.21,1.41,0.77l10.59,15.38
			c0.88,1.34,2.04,3.59,2.04,3.59h0.07c0,0-0.21-2.22-0.21-3.59v-14.99c0-0.77,0.42-1.16,1.16-1.16h1.13c0.77,0,1.16,0.39,1.16,1.16
			v22.52c0,0.77-0.39,1.16-1.16,1.16h-1.34c-0.63,0-1.06-0.21-1.37-0.77l-10.63-15.34c-0.88-1.37-2.04-3.62-2.04-3.62h-0.07
			c0,0,0.21,2.22,0.21,3.62v14.95c0,0.77-0.39,1.16-1.16,1.16h-1.13c-0.77,0-1.16-0.39-1.16-1.16V721.19z"/>
		<path class="st4" d="M766.58,719.6c7.39,0,12.74,5.52,12.74,12.67c0,7.32-5.35,13.02-12.74,13.02c-7.39,0-12.77-5.7-12.77-13.02
			C753.81,725.13,759.19,719.6,766.58,719.6z M766.58,742.09c5.28,0,9.15-4.26,9.15-9.82c0-5.38-3.87-9.47-9.15-9.47
			c-5.28,0-9.18,4.08-9.18,9.47C757.39,737.83,761.3,742.09,766.58,742.09z"/>
		<path class="st4" d="M791.1,721.19c0-0.77,0.39-1.16,1.16-1.16h1.13c0.77,0,1.16,0.39,1.16,1.16v20.66h9.99
			c0.74,0,1.16,0.39,1.16,1.16v0.7c0,0.77-0.42,1.16-1.16,1.16h-12.28c-0.77,0-1.16-0.39-1.16-1.16V721.19z"/>
		<path class="st4" d="M825.73,719.6c7.39,0,12.74,5.52,12.74,12.67c0,7.32-5.35,13.02-12.74,13.02c-7.39,0-12.77-5.7-12.77-13.02
			C812.96,725.13,818.34,719.6,825.73,719.6z M825.73,742.09c5.28,0,9.15-4.26,9.15-9.82c0-5.38-3.87-9.47-9.15-9.47
			c-5.28,0-9.18,4.08-9.18,9.47C816.55,737.83,820.45,742.09,825.73,742.09z"/>
		<path class="st4" d="M861.37,719.6c4.19,0,7.11,1.58,8.16,2.32c0.6,0.46,0.67,0.99,0.25,1.58l-0.49,0.74
			c-0.42,0.63-0.95,0.67-1.62,0.32c-1.09-0.67-3.13-1.76-6.12-1.76c-5.7,0-9.25,4.26-9.25,9.57c0,5.67,3.94,9.71,9.08,9.71
			c4.57,0,7.07-3.2,7.07-3.2v-3.48h-2.89c-0.74,0-1.16-0.39-1.16-1.16v-0.7c0-0.74,0.42-1.16,1.16-1.16h4.89
			c0.77,0,1.16,0.42,1.16,1.16v10.17c0,0.77-0.39,1.16-1.16,1.16h-0.67c-0.74,0-1.16-0.39-1.16-0.98v-0.91
			c0-0.42,0.04-0.77,0.04-0.77h-0.07c0,0-2.64,3.1-7.67,3.1c-6.72,0-12.21-5.31-12.21-12.77
			C848.71,725.16,854.09,719.6,861.37,719.6z"/>
		<path class="st4" d="M888.79,734.35l-7.53-12.95c-0.46-0.77-0.11-1.37,0.81-1.37h1.41c0.63,0,1.05,0.25,1.34,0.81l4.19,7.35
			c0.74,1.41,1.51,3.13,1.51,3.13h0.07c0,0,0.74-1.72,1.51-3.13l4.15-7.35c0.28-0.56,0.7-0.81,1.34-0.81h1.41
			c0.92,0,1.27,0.6,0.81,1.37l-7.53,12.95v9.36c0,0.77-0.42,1.16-1.16,1.16h-1.16c-0.74,0-1.16-0.39-1.16-1.16V734.35z"/>
	</g>
	<g class="st3">
		<path class="st4" d="M606.78,767.8c0-0.77,0.39-1.16,1.16-1.16h1.13c0.77,0,1.16,0.39,1.16,1.16v22.52c0,0.77-0.39,1.16-1.16,1.16
			h-1.13c-0.77,0-1.16-0.39-1.16-1.16V767.8z"/>
		<path class="st4" d="M625.71,767.8c0-0.77,0.39-1.16,1.16-1.16h1.34c0.67,0,1.06,0.21,1.41,0.77l10.59,15.38
			c0.88,1.34,2.04,3.59,2.04,3.59h0.07c0,0-0.21-2.22-0.21-3.59V767.8c0-0.77,0.42-1.16,1.16-1.16h1.13c0.77,0,1.16,0.39,1.16,1.16
			v22.52c0,0.77-0.39,1.16-1.16,1.16h-1.34c-0.63,0-1.06-0.21-1.37-0.77l-10.63-15.34c-0.88-1.37-2.04-3.62-2.04-3.62h-0.07
			c0,0,0.21,2.22,0.21,3.62v14.96c0,0.77-0.39,1.16-1.16,1.16h-1.13c-0.77,0-1.16-0.39-1.16-1.16V767.8z"/>
		<path class="st4" d="M661.04,767.8c0-0.77,0.39-1.16,1.16-1.16h1.34c0.67,0,1.06,0.21,1.41,0.77l10.59,15.38
			c0.88,1.34,2.04,3.59,2.04,3.59h0.07c0,0-0.21-2.22-0.21-3.59V767.8c0-0.77,0.42-1.16,1.16-1.16h1.13c0.77,0,1.16,0.39,1.16,1.16
			v22.52c0,0.77-0.39,1.16-1.16,1.16h-1.34c-0.63,0-1.06-0.21-1.37-0.77l-10.63-15.34c-0.88-1.37-2.04-3.62-2.04-3.62h-0.07
			c0,0,0.21,2.22,0.21,3.62v14.96c0,0.77-0.39,1.16-1.16,1.16h-1.13c-0.77,0-1.16-0.39-1.16-1.16V767.8z"/>
		<path class="st4" d="M707.56,766.22c7.39,0,12.74,5.53,12.74,12.67c0,7.32-5.35,13.02-12.74,13.02c-7.39,0-12.77-5.7-12.77-13.02
			C694.79,771.74,700.17,766.22,707.56,766.22z M707.56,788.7c5.28,0,9.15-4.26,9.15-9.82c0-5.38-3.87-9.47-9.15-9.47
			c-5.28,0-9.18,4.08-9.18,9.47C698.38,784.45,702.28,788.7,707.56,788.7z"/>
		<path class="st4" d="M731.31,767.98c-0.28-0.81,0.07-1.34,0.95-1.34h1.34c0.67,0,1.09,0.28,1.3,0.95l5.84,16.61
			c0.46,1.34,0.95,3.41,0.95,3.41h0.07c0,0,0.53-2.08,0.95-3.41l5.91-16.61c0.21-0.67,0.63-0.95,1.3-0.95h1.3
			c0.88,0,1.23,0.53,0.95,1.34l-8.27,22.56c-0.21,0.67-0.67,0.95-1.3,0.95h-1.69c-0.67,0-1.09-0.28-1.34-0.95L731.31,767.98z"/>
		<path class="st4" d="M769.52,767.59c0.21-0.67,0.63-0.95,1.3-0.95h1.69c0.63,0,1.09,0.28,1.3,0.95l8.16,22.56
			c0.28,0.81-0.11,1.34-0.95,1.34h-1.2c-0.67,0-1.09-0.32-1.3-0.95l-2.22-6.19h-9.36l-2.18,6.19c-0.18,0.63-0.63,0.95-1.27,0.95
			h-1.2c-0.88,0-1.23-0.53-0.95-1.34L769.52,767.59z M775.4,781.45l-2.74-7.88c-0.42-1.27-0.95-3.52-0.95-3.52h-0.07
			c0,0-0.56,2.25-0.98,3.52l-2.78,7.88H775.4z"/>
		<path class="st4" d="M798.24,769.66h-7.39c-0.77,0-1.16-0.42-1.16-1.16v-0.7c0-0.77,0.39-1.16,1.16-1.16h18.23
			c0.74,0,1.13,0.39,1.13,1.16v0.7c0,0.74-0.39,1.16-1.13,1.16h-7.39v20.66c0,0.77-0.42,1.16-1.16,1.16h-1.16
			c-0.74,0-1.13-0.39-1.13-1.16V769.66z"/>
		<path class="st4" d="M822.73,767.8c0-0.77,0.39-1.16,1.16-1.16h1.13c0.77,0,1.16,0.39,1.16,1.16v22.52c0,0.77-0.39,1.16-1.16,1.16
			h-1.13c-0.77,0-1.16-0.39-1.16-1.16V767.8z"/>
		<path class="st4" d="M852.85,766.22c7.39,0,12.74,5.53,12.74,12.67c0,7.32-5.35,13.02-12.74,13.02s-12.77-5.7-12.77-13.02
			C840.08,771.74,845.46,766.22,852.85,766.22z M852.85,788.7c5.28,0,9.15-4.26,9.15-9.82c0-5.38-3.87-9.47-9.15-9.47
			c-5.28,0-9.18,4.08-9.18,9.47C843.67,784.45,847.57,788.7,852.85,788.7z"/>
		<path class="st4" d="M879.49,767.8c0-0.77,0.39-1.16,1.16-1.16h1.34c0.67,0,1.06,0.21,1.41,0.77l10.59,15.38
			c0.88,1.34,2.04,3.59,2.04,3.59h0.07c0,0-0.21-2.22-0.21-3.59V767.8c0-0.77,0.42-1.16,1.16-1.16h1.13c0.77,0,1.16,0.39,1.16,1.16
			v22.52c0,0.77-0.39,1.16-1.16,1.16h-1.34c-0.63,0-1.06-0.21-1.37-0.77l-10.63-15.34c-0.88-1.37-2.04-3.62-2.04-3.62h-0.07
			c0,0,0.21,2.22,0.21,3.62v14.96c0,0.77-0.39,1.16-1.16,1.16h-1.13c-0.77,0-1.16-0.39-1.16-1.16V767.8z"/>
	</g>
</g>
<text transform="matrix(1 0 0 1 733.7368 405.8441)"><tspan x="0" y="0" class="st5 st6">Tamás </tspan><tspan x="0" y="204" class="st5 st6">Krausz</tspan></text>
</svg>
